<svg width="270" height="32" viewBox="0 0 270 32" fill="none" xmlns="http://www.w3.org/2000/svg">
<g clip-path="url(#clip0_1051_9530)">
<path d="M37.7753 15.9997C30.0593 15.9997 23.7832 9.72187 23.7832 2.00684H26.9613C26.9613 7.97101 31.8128 12.8228 37.7767 12.8228V16.0011L37.7753 15.9997Z" fill="#004FFF"/>
<path d="M37.7753 15.9995C30.0593 15.9995 23.7832 22.2772 23.7832 29.9923H26.9613C26.9613 24.0281 31.8128 19.1763 37.7767 19.1763V15.998L37.7753 15.9995Z" fill="#004FFF"/>
<path d="M0.222109 15.9995C7.93816 15.9995 14.2142 22.2772 14.2142 29.9923H11.0361C11.0361 24.0281 6.18458 19.1763 0.220703 19.1763V15.998L0.222109 15.9995Z" fill="#FF2A00"/>
<path d="M0.222109 15.9997C7.93816 15.9997 14.2142 9.72187 14.2142 2.00684H11.0361C11.0361 7.97101 6.18458 12.8228 0.220703 12.8228V16.0011L0.222109 15.9997Z" fill="#FF2A00"/>
<path d="M37.999 16.2224H37.7768C29.9384 16.2224 23.5625 9.84615 23.5625 2.00735V1.78516H27.1836V2.00735C27.1836 7.84918 31.9353 12.6011 37.7768 12.6011H37.999V16.2224ZM24.0083 2.22955C24.1264 9.64786 30.1381 15.6598 37.556 15.778V13.0427C31.6456 12.926 26.8601 8.14029 26.7434 2.22955H24.0083Z" fill="black"/>
<path d="M27.1836 30.215H23.5625V29.9929C23.5625 22.1541 29.9384 15.7778 37.7768 15.7778H37.999V19.3991H37.7768C31.9353 19.3991 27.1836 24.151 27.1836 29.9929V30.215ZM24.0069 29.7721H26.742C26.8587 23.8613 31.6442 19.0756 37.5546 18.9589V16.2236C30.1367 16.3418 24.125 22.3538 24.0069 29.7721Z" fill="black"/>
<path d="M14.4365 30.215H10.8154V29.9929C10.8154 24.151 6.06372 19.3991 0.222186 19.3991H0V15.7778H0.222186C8.06058 15.7778 14.4365 22.1541 14.4365 29.9929V30.215ZM11.257 29.7721H13.9921C13.874 22.3538 7.8623 16.3418 0.444373 16.2236V18.9589C6.35481 19.0756 11.1403 23.8613 11.257 29.7721Z" fill="black"/>
<path d="M0.222186 16.2224H0V12.6011H0.222186C6.06372 12.6011 10.8154 7.84918 10.8154 2.00735V1.78516H14.4365V2.00735C14.4365 9.84615 8.06058 16.2224 0.222186 16.2224ZM0.444373 13.0427V15.778C7.8623 15.6598 13.874 9.64786 13.9921 2.22955H11.257C11.1403 8.14029 6.35481 12.926 0.444373 13.0427Z" fill="black"/>
<path d="M16.8762 31.4525H15.6738L21.1216 0.547363H22.3239L16.8762 31.4525Z" fill="black"/>
<path d="M49.9993 16.0007C49.9993 9.47906 53.934 5 60.6806 5C66.9833 5 70.3553 8.66645 70.3553 12.5143H66.0353C65.502 10.5301 63.7273 8.93732 60.6794 8.93732C56.7447 8.93732 54.762 11.462 54.762 16.0007C54.762 20.5393 56.7447 23.0627 60.6794 23.0627C64.1713 23.0627 65.798 21.1692 66.0647 18.0432H61.242V14.7668H70.5914V26.9987H67.1887L66.7447 23.5124C65.7687 25.796 63.7273 26.9987 60.206 26.9987C53.6967 26.9987 49.998 22.521 49.998 15.9994L49.9993 16.0007Z" fill="black"/>
<path d="M73.8066 27V5H78.7046V22.9525H88.7722V27H73.8066Z" fill="black"/>
<path d="M90.7734 27V5H95.6714V27H90.7734Z" fill="black"/>
<path d="M104.063 27V9.04748H97.6445V5H115.408V9.04748H108.96V27H104.063Z" fill="black"/>
<path d="M115.734 16.0007C115.734 9.47906 119.669 5 126.416 5C132.245 5 136.357 8.4863 136.357 13.2946H131.83C131.476 10.7997 129.789 8.93602 126.416 8.93602C122.481 8.93602 120.498 11.4607 120.498 15.9994C120.498 20.538 122.481 23.0614 126.416 23.0614C129.729 23.0614 131.476 21.3182 131.83 18.5227H136.357C136.357 23.4217 132.362 26.9987 126.416 26.9987C119.67 26.9987 115.734 22.521 115.734 15.9994V16.0007Z" fill="black"/>
<path d="M153.076 27V17.9162H143.89V27H138.992V5H143.89V13.6523H153.076V5H157.974V27H153.076Z" fill="black"/>
<path d="M264.387 7.75621C264.387 6.12581 265.497 5.01123 267.197 5.01123C268.898 5.01123 269.998 6.12581 269.998 7.75621C269.998 9.38661 268.898 10.5012 267.197 10.5012C265.497 10.5012 264.387 9.38661 264.387 7.75621ZM269.387 7.75621C269.387 6.44204 268.546 5.55815 267.199 5.55815C265.851 5.55815 265 6.44204 265 7.75621C265 9.07038 265.84 9.95427 267.199 9.95427C268.557 9.95427 269.387 9.07038 269.387 7.75621ZM267.872 7.84045C268.173 7.91432 268.319 8.12428 268.319 8.41848V8.85005C268.319 8.9654 268.339 9.06001 268.36 9.12351H267.696C267.666 9.04964 267.634 8.9654 267.634 8.85005V8.47161C267.634 8.15668 267.447 8.08281 267.209 8.08281H266.835V9.12351H266.151V6.3889H267.437C268.028 6.3889 268.361 6.69347 268.361 7.18855C268.361 7.52552 268.195 7.74584 267.874 7.84045H267.872ZM267.292 6.91509H266.835V7.56699H267.292C267.561 7.56699 267.676 7.47238 267.676 7.23002C267.676 7.0097 267.562 6.91509 267.292 6.91509Z" fill="black"/>
<path d="M162.888 27H162.045L165.863 5H166.706L162.888 27Z" fill="#060001"/>
<path d="M184.766 26.9978L176.863 16.0658L173.397 19.5547V26.9965H170.783V5.01074H173.397V16.3432L184.463 5.01074H187.563L178.626 14.1205L187.867 26.9965H184.766V26.9978Z" fill="black"/>
<path d="M187.51 16.0041C187.51 9.4864 190.91 5.01123 197.505 5.01123C204.099 5.01123 207.528 9.4864 207.528 16.0041C207.528 22.5218 204.128 26.997 197.505 26.997C190.882 26.997 187.51 22.5218 187.51 16.0041ZM204.985 16.0041C204.985 10.3573 202.442 7.14319 197.505 7.14319C192.567 7.14319 190.054 10.3573 190.054 16.0041C190.054 21.6509 192.597 24.865 197.505 24.865C202.413 24.865 204.985 21.6509 204.985 16.0041Z" fill="black"/>
<path d="M223.095 16.5907C225.375 17.1778 226.621 18.7836 226.621 21.2227V24.7738C226.621 25.7005 226.742 26.4716 226.925 26.9978H224.493C224.22 26.4107 224.007 25.7316 224.007 24.7738V21.2849C224.007 18.3818 222.182 17.5485 219.691 17.5485H213.216V26.9978H210.602V5.01074H220.238C224.554 5.01074 226.926 7.35784 226.926 11.1254C226.926 13.9663 225.618 15.8507 223.096 16.5907H223.095ZM219.964 7.04939H213.216V15.5098H219.964C223.064 15.5098 224.31 13.7809 224.31 11.2796C224.31 8.77828 223.064 7.04939 219.964 7.04939Z" fill="black"/>
<path d="M230.029 26.9978V5.01074H244.894V7.20361H232.644V14.7387H243.921V16.8383H232.644V24.8049H244.894V26.9978H230.029Z" fill="black"/>
<path d="M263.709 26.997L261.551 21.4383H251.154L248.995 26.997H246.289L254.771 5.01123H257.932L266.414 26.997H263.708H263.709ZM256.353 7.54236L251.824 19.3686H260.851L256.353 7.54236Z" fill="black"/>
</g>
<defs>
<clipPath id="clip0_1051_9530">
<rect width="269.999" height="30.9051" fill="white" transform="translate(0 0.547363)"/>
</clipPath>
</defs>
</svg>
